<svg height="542.29" viewBox="0 0 973.69 542.29" width="973.69" xmlns="http://www.w3.org/2000/svg"><g fill="#fff"><path d="m817.13 427.36c49.28-9.76 86.46-18.36 88.32-20.22a9.73 9.73 0 0 0 -1.4-15.3c-4.18-2.79-14.41-1.39-89.95 13.71-47 9.53-86 17.2-86.7 17.2s-2.79-5.58-4.88-12.55l-3.72-12.78 49-20c27-11.16 50.44-21.38 52.06-22.55 6.28-5.35 1.63-18.13-6.74-18.13-2.09 0-25.57 8.83-51.83 19.76-26.5 10.92-49 19.76-50.2 19.76-1.39 0-14-19.52-14-22.08 0-.23 46-31.15 102.27-68.57 95.06-63.45 102.27-68.57 102.27-74.84 0-4.88-1.63-7.44-5.81-9.3-5.35-2.32-13 2.09-108.78 66l-102.64 68.59-7.44-9.3c-4.18-4.88-7.67-9.76-7.67-10.69 0-.7 24.64-26 54.62-56 54.16-53.92 58.81-60 51.83-66.94s-13-2.32-66.94 51.83c-30 30-55.09 54.62-56 54.62-2.33 0-20.69-14.88-20.69-17 0-.93 39.28-60.2 87.16-131.79 47.88-71.36 87.16-131.32 87.16-133.18 0-4.88-8.37-11.39-13.25-10.46-2.56.46-37.65 50.67-92.28 132.49l-88.33 131.8-8.14-4.44c-15.57-8.37-15.34-6.74-6-30.45 8.83-22.78 9.07-30.91 1.16-33.47-8.13-2.56-12.78 2.79-20.69 23.71-4.18 11.16-8.37 21.15-9.3 22.31-2.32 2.32-23.47-5.11-23.47-8.37 0-1.63 10.46-53.92 23.24-116.45 23.63-115.73 24.13-119.68 15.07-123.17-4.88-1.86-12.09 2.09-13.71 7.21-.47 2.32-11.16 54.39-23.71 115.75-12.32 61.36-23 112.26-23.94 113.19-.7.93-7.44.93-14.88.23l-13.2-1.39v-58.81c0-55.78-.23-59-4.42-61.36-6.28-3.25-8.6-3-12.78 1.4-3.25 3-3.72 11.85-3.72 61.13v57.64l-11.85 1.63c-6.74.93-12.78.7-13.71-.23s-12.32-53.69-25.1-116.68c-18.18-89.49-24.22-115.75-27.48-118.08-5.33-3.94-6.26-3.74-12.54 1.18l-5.11 4.18 23.48 115.75c13 63.69 23.24 116.91 22.78 118.31-.93 3-20.92 9.07-22.78 6.74-.93-.93-5.11-10.92-9.3-22.31-8.37-22.31-13.47-27.43-22.78-22.59-6.74 3.72-6.28 7.9 3.25 32.54 4.65 11.85 7.9 22.08 7.21 23-.46.93-5.81 4.18-11.85 7.44-9.3 4.88-11.16 5.35-12.78 2.32-1.16-1.86-41.14-61.59-88.79-132.49-53.46-79.67-88.32-129.18-90.88-129.65-4.85-.93-13.25 5.58-13.25 10.23 0 1.63 39.75 62.52 88.32 134.81l88.32 132-5.11 5.58c-12.32 13-9.3 15.11-70.19-45.79-55.32-55.32-61.36-60.2-68.33-53.23s-2.09 13 53.46 68.57l56 56.25-6.74 8.6c-3.72 4.88-7.44 9.76-8.14 10.92-.93 1.16-48.11-29.05-105.29-67.17-96.46-64.38-104.13-68.8-109.48-66.48-4.18 1.86-5.81 4.42-5.81 9.3 0 6.28 7.21 11.39 102.27 74.84 56.25 37.42 102.27 69 102.27 70.19 0 2.56-9.06 20.45-10.23 20.45-.47 0-23.71-9.53-51.6-20.92-27.89-11.61-52.29-20.91-54.39-20.91-9.76 0-12.55 13.95-3.95 19.52 2.79 1.86 21.85 10.23 42.3 18.36 20.45 8.37 42.07 17.43 48.11 20l10.93 4.72-3.95 12c-2.09 6.51-4.88 12.32-6.28 12.78-1.16.46-40.68-6.74-87.63-16-75.77-15.34-86-16.74-90.18-13.95a9.78 9.78 0 0 0 -1.38 15.35c1.86 1.86 39.28 10.23 89 20.22 47 9.3 86 17.2 86.46 17.66s0 6.51-.93 13.71l-1.4 12.78h-118.28l-2.75 5.81c-2.09 4.88-1.86 6.51 1.63 10.46 4 4.42 7.21 4.65 61.83 4.65h57.41l1.63 14.18c.93 7.67 3 19.76 4.65 26.5l1.67 7.67h.68a30.27 30.27 0 0 1 8.71 1.27h1.19a31 31 0 0 1 3.89.25c1-.37 2-.7 3-1 .3-.36.61-.71.92-1.06s.35-.73.53-1.08a21.55 21.55 0 0 1 1.21-2l-2.55-8.2c-4.65-15.11-3.72-77.86 1.16-97.85 21.85-87.39 89.25-152.47 176-169.91 21.62-4.43 68.57-4.2 90 .22 47.18 9.76 83.21 29.29 116.91 63.69 31.38 31.84 49.28 64.38 59.5 108.08 6.75 28.65 5.91 74.53.14 101.5a31.65 31.65 0 0 1 3.53 3.22 28.87 28.87 0 0 1 3.24 1 28.54 28.54 0 0 1 5.69-.59c.85 0 1.69 0 2.52.12l.75-.05a32.4 32.4 0 0 1 4.76-2.53c.3-1.74.63-3.62 1-5.52a232.06 232.06 0 0 0 3.72-24.64l1.39-13.25h113.56l3.49-5.58c3-4.42 3.25-6.74 1.16-10.46-2.32-4.65-4.18-4.88-60.2-4.88h-57.87l-1.4-5.35a68.51 68.51 0 0 1 -1.39-13.48v-8.37z"/><path d="m292.75 27.62c-2.56 2.56-4.65 5.35-4.65 6.28.23 1.16 11.85 30.68 26.26 65.78 25.57 62.76 26 63.92 32.77 63.92 4.18 0 7.9-1.86 9.76-4.65 2.56-4.18-.23-12.09-22.08-67.17-22.55-56-29.05-68.8-35.56-68.8-.92.02-3.94 2.09-6.5 4.64z"/><path d="m664 25.76c-4.65 3.49-52.76 120.63-52.76 128.3 0 6.74 4.18 10.69 11.16 10.69 6.28 0 7.21-2.09 37.89-78.33 11.39-28.36 20-53.23 19.29-55.32-1.16-3-7.9-8.14-10.69-8.14a25.22 25.22 0 0 0 -4.89 2.8z"/><path d="m477.77 29c-2.79 2.56-3.72 8.37-3.72 22.78 0 20 1.86 24.64 10.46 24.64s10.49-4.42 10.49-26.01c0-17.66-.47-20.69-4.42-22.78-6.3-3.26-8.58-3.03-12.81 1.37z"/><path d="m119.83 118.74c-2.09 2.79-3.72 6-3.72 7.2 0 4.65 35.79 38.82 40.68 38.82 6.28 0 10.46-4.18 10.46-10.46 0-5.81-34.4-40.68-40-40.68-2.08 0-5.57 2.38-7.42 5.12z"/><path d="m819.68 131.75c-17.68 17.67-20.92 24.41-15.11 30.25 6 6 12.78 2.79 30.45-15.57 9.76-10 17.9-19.76 17.9-21.62 0-4.18-7.44-11.16-11.85-11.16-1.87-.03-11.4 8.11-21.39 18.1z"/><path d="m2.68 276.79c-3.72 3.72-3.49 12.32.23 15.34 5.35 4.18 90.88 40 96 40 6.74 0 11.16-5.81 9.3-12.55-1.21-4.67-8.84-8.58-48.12-25.58-25.57-10.92-48.35-20-50.67-20a10.86 10.86 0 0 0 -6.74 2.79z"/><path d="m913.34 293.52c-25.1 10.46-46.72 20-48.34 20.92-3.49 2.09-3.72 11.16 0 14.88 1.63 1.63 5.11 2.79 7.67 2.79 5.11 0 93-35.79 98.32-40.21 3.49-2.79 3.72-11.39 0-15.11-4.88-4.88-11.39-3.02-57.65 16.73z"/><path d="m2.68 474.36c-3.49 3.49-3.49 11.85 0 15.34 1.86 1.86 13.48 2.79 36.72 2.79 35.56 0 39.51-.93 39.51-10.46s-4-10.46-39.51-10.46c-23.24 0-34.86.93-36.72 2.79z"/><path d="m895.22 474.36a11.85 11.85 0 0 0 -2.79 7.67c0 9.53 4 10.46 39.51 10.46s39.51-.93 39.51-10.46-4-10.46-39.51-10.46c-23.24 0-34.87.93-36.72 2.79z"/></g></svg>