<svg viewBox="0 0 48 48" xmlns="http://www.w3.org/2000/svg"><g fill="none"><g stroke="#000" stroke-linecap="round" stroke-linejoin="round" stroke-width="2"><path d="m35 26.5a11 11 0 0 1 -22 0"/><path d="m24 25.5v17"/><path d="m18 43.5h12"/><path d="m11 11h4v11h-4z"/><path d="m22 10h4v11h-4z"/><path d="m33 11h4v11h-4z"/><path d="m15 6.15a1.93 1.93 0 0 1 -2 1.85 1.93 1.93 0 0 1 -2-1.85c0-1.02 2-4.15 2-4.15s2 3.13 2 4.15z"/><path d="m26 5.15a2 2 0 0 1 -4 0c0-1.02 2-4.15 2-4.15s2 3.13 2 4.15z"/><path d="m37 6.15a2 2 0 0 1 -4 0c0-1.02 2-4.15 2-4.15s2 3.13 2 4.15z"/><path d="m10 26h6"/><path d="m21 25h6"/><path d="m32 26h6"/></g><path d="m0 0h48v48h-48z"/></g></svg>