<svg height="10.1mm" viewBox="0 0 133.89 28.63" width="47.23mm" xmlns="http://www.w3.org/2000/svg"><path d="m2.13 8.93c4.87-2.27 9.05-6.8 14.73-6.8s10.66 6.8 16.63 6.8 10.67-6.8 16.65-6.8 10.86 6.8 16.71 6.8 9.93-6.8 15.92-6.8 11.36 6.8 17.47 6.8 11-6.8 16.71-6.8 9.88 4.53 14.81 6.8m-129.63 17.57c4.91-2.26 9.05-6.8 14.73-6.8s10.66 6.8 16.63 6.8 10.67-6.8 16.65-6.8 10.86 6.8 16.71 6.8 9.93-6.8 15.92-6.8 11.36 6.8 17.47 6.8 11-6.8 16.71-6.8 9.88 4.54 14.81 6.8" fill="none" stroke="#fff" stroke-linecap="round" stroke-linejoin="round" stroke-width="4.25201"/></svg>