<svg xmlns="http://www.w3.org/2000/svg" viewBox="0 0 48 48"><defs><style>.a,.b{fill:none;}.b{stroke:#000;stroke-linecap:round;stroke-linejoin:round;stroke-width:2px;}</style></defs><title>115_h_24</title><rect class="a" width="48" height="48"/><path class="b" d="M31,46V30l-3-2V13.6A1.6,1.6,0,0,1,29.6,12H40.4A1.59,1.59,0,0,1,42,13.6V28l-3,2V46"/><path class="b" d="M7,25V15a3,3,0,0,1,3-3H16a3,3,0,0,1,3,3V25"/><circle cx="35" cy="4" r="3"/><circle cx="13" cy="4" r="3"/><line class="b" x1="3" y1="27" x2="28" y2="27"/><line class="b" x1="3" y1="27" x2="28" y2="27"/><line class="b" x1="42" y1="27" x2="46" y2="27"/></svg>