<svg height="9.6mm" viewBox="0 0 132.47 27.21" width="46.73mm" xmlns="http://www.w3.org/2000/svg"><path d="m1.42 8.22c4.91-2.22 9.05-6.8 14.73-6.8s10.66 6.8 16.63 6.8 10.67-6.8 16.65-6.8 10.84 6.8 16.71 6.8 9.93-6.8 15.92-6.8 11.36 6.8 17.47 6.8 11-6.8 16.71-6.8 9.88 4.53 14.81 6.8m-129.63 17.58c4.91-2.27 9.05-6.8 14.73-6.8s10.66 6.8 16.63 6.8 10.67-6.8 16.65-6.8 10.84 6.8 16.71 6.8 9.93-6.8 15.92-6.8 11.36 6.8 17.47 6.8 11-6.81 16.71-6.81 9.88 4.54 14.81 6.81" fill="none" stroke="#fff" stroke-linecap="round" stroke-linejoin="round" stroke-width="2.83458"/></svg>