<svg xmlns="http://www.w3.org/2000/svg" viewBox="0 0 48 48"><title>684_xm_h</title><path d="M35,26.5a11,11,0,0,1-22,0" fill="none" stroke="#000" stroke-linecap="round" stroke-linejoin="round" stroke-width="2"/><line x1="24" y1="25.5" x2="24" y2="42.5" fill="none" stroke="#000" stroke-linecap="round" stroke-linejoin="round" stroke-width="2"/><line x1="18" y1="43.5" x2="30" y2="43.5" fill="none" stroke="#000" stroke-linecap="round" stroke-linejoin="round" stroke-width="2"/><rect x="11" y="11" width="4" height="11" stroke-width="2" stroke="#000" stroke-linecap="round" stroke-linejoin="round" fill="none"/><rect x="22" y="10" width="4" height="11" stroke-width="2" stroke="#000" stroke-linecap="round" stroke-linejoin="round" fill="none"/><rect x="33" y="11" width="4" height="11" stroke-width="2" stroke="#000" stroke-linecap="round" stroke-linejoin="round" fill="none"/><path d="M15,6.15A1.93,1.93,0,0,1,13,8a1.93,1.93,0,0,1-2-1.85C11,5.13,13,2,13,2S15,5.13,15,6.15Z" fill="none" stroke="#000" stroke-linecap="round" stroke-linejoin="round" stroke-width="2"/><path d="M26,5.15a2,2,0,0,1-4,0C22,4.13,24,1,24,1S26,4.13,26,5.15Z" fill="none" stroke="#000" stroke-linecap="round" stroke-linejoin="round" stroke-width="2"/><path d="M37,6.15a2,2,0,0,1-4,0C33,5.13,35,2,35,2S37,5.13,37,6.15Z" fill="none" stroke="#000" stroke-linecap="round" stroke-linejoin="round" stroke-width="2"/><line x1="10" y1="26" x2="16" y2="26" fill="none" stroke="#000" stroke-linecap="round" stroke-linejoin="round" stroke-width="2"/><line x1="21" y1="25" x2="27" y2="25" fill="none" stroke="#000" stroke-linecap="round" stroke-linejoin="round" stroke-width="2"/><line x1="32" y1="26" x2="38" y2="26" fill="none" stroke="#000" stroke-linecap="round" stroke-linejoin="round" stroke-width="2"/><rect width="48" height="48" fill="none"/></svg>