<svg viewBox="0 0 48 48" xmlns="http://www.w3.org/2000/svg"><circle cx="18" cy="3.97" r="2"/><circle cx="31" cy="3.97" r="2"/><circle cx="14.3" cy="17.63" r="2"/><circle cx="12.95" cy="23.47" r="2"/><circle cx="11.6" cy="29.32" r="2"/><path d="m21 11-4.5 19.48a5 5 0 0 1 -9.77-2.28l4.5-19.49m-.75 25.48-2.48 10.72m4.87 1.12-9.74-2.24" fill="none" stroke="#000" stroke-linecap="round" stroke-linejoin="round" stroke-width="2"/><circle cx="33.7" cy="17.63" r="2"/><circle cx="35.05" cy="23.47" r="2"/><circle cx="36.4" cy="29.32" r="2"/><g fill="none"><path d="m27 11 4.5 19.48a5 5 0 0 0 9.74-2.24l-4.47-19.53m.75 25.48 2.48 10.72m-4.87 1.12 9.74-2.24" stroke="#000" stroke-linecap="round" stroke-linejoin="round" stroke-width="2"/><path d="m0 0h48v48h-48z"/></g></svg>