<svg xmlns="http://www.w3.org/2000/svg" width="47.23mm" height="10.1mm" viewBox="0 0 133.89 28.63"><title>アセット 3</title><g id="レイヤー_2" data-name="レイヤー 2"><g id="Layer_1" data-name="Layer 1"><path d="M2.13,8.93C7,6.66,11.18,2.13,16.86,2.13s10.66,6.8,16.63,6.8,10.67-6.8,16.65-6.8S61,8.93,66.85,8.93s9.93-6.8,15.92-6.8,11.36,6.8,17.47,6.8,11-6.8,16.71-6.8,9.88,4.53,14.81,6.8M2.13,26.5c4.91-2.26,9.05-6.8,14.73-6.8s10.66,6.8,16.63,6.8,10.67-6.8,16.65-6.8S61,26.5,66.85,26.5s9.93-6.8,15.92-6.8,11.36,6.8,17.47,6.8,11-6.8,16.71-6.8,9.88,4.54,14.81,6.8" style="fill:none;stroke:#fff;stroke-linecap:round;stroke-linejoin:round;stroke-width:4.25201px"/></g></g></svg>